<svg
      width="1266"
      height="578"
      viewBox="0 0 1266 578"
      fill="none"
      xmlns="http://www.w3.org/2000/svg"
    >
      <path
        d="M1017.75 499.062H1051.5L1063.38 499.688L1072.75 501.562L1077.75 504.062L1082.75 508.438L1086.5 514.688L1087.12 516.562V525.938L1082.75 533.438L1079.62 537.812L1074 540.938H1072.75L1079 557.188L1084.62 570.312L1087.12 575.312L1086.5 575.938H1062.75L1060.25 572.812L1052.75 551.562L1050.25 545.312L1048.38 544.062L1042.12 543.438V574.688L1040.88 575.938H1018.38L1017.75 575.312V499.062ZM1043.38 513.438L1042.12 514.062L1041.5 515.938V527.812L1043.38 529.688H1052.75L1060.25 527.812L1062.12 525.938L1062.75 522.812L1061.5 517.188L1058.38 514.062L1055.88 513.438H1043.38Z"
        fill="#DA3466"
      />
      <path
        d="M491.5 499.062H510.25L513.375 500.938L517.75 505.938L527.125 520.312L533.375 530.312L538.375 536.562L539 499.688L539.625 499.062H556.5L557.125 574.688L556.5 575.938H540.25L537.125 572.812L532.125 566.562L524 554.688L515.25 542.812L509.625 536.562L508.375 535.938L509 540.312V553.438L508.375 575.938H492.125L490.875 574.688V500.938L491.5 499.062Z"
        fill="#DA3566"
      />
      <path
        d="M349 499.062H368.375L384 499.688L395.875 501.562L402.75 504.062L407.75 507.188L412.75 512.812L416.5 520.312L418.375 529.062V545.938L416.5 554.688L412.75 562.188L407.125 569.062L399 573.438L389.625 575.312L377.75 575.938H349.625L349 574.688V499.062ZM372.125 513.438L371.5 514.062L370.875 554.062L371.5 559.688L372.125 560.312H381.5L388.375 557.812L392.75 554.062L394.625 549.062L395.875 541.562V530.312L394 524.062L390.25 518.438L384.625 514.688L379 513.438H372.125Z"
        fill="#DA3466"
      />
      <path
        d="M88.375 499.688H110.25L113.375 502.188L120.25 513.438L129 525.938L134.625 534.062L136.5 537.188V499.688H153.375L154 500.312V575.938H139L135.875 574.688L128.375 564.062L120.25 552.812L112.75 542.188L107.125 535.938L106.5 535.312L105.875 575.312L105.25 575.938H89.625L88.375 574.688V499.688Z"
        fill="#DA3466"
      />
      <path
        d="M750.875 499.062H770.25L772.125 499.688V527.812L792.125 528.438V499.688L792.75 499.062H815.25L815.875 499.688V575.938H792.75L792.125 575.312V545.312L771.5 544.688L772.125 575.312L771.5 575.938H750.25V499.688L750.875 499.062Z"
        fill="#DA3566"
      />
      <path
        d="M612.75 497.188H621.5L629 499.062L637.75 503.438L643.375 508.438L648.375 515.312L651.5 522.188V523.438L637.75 526.562L631.5 527.188L629 525.938L624 515.938L620.25 513.438H614L610.25 515.938L606.5 520.938L604.625 525.938L603.375 535.938L604 547.812L606.5 555.938L610.875 559.688L614 560.938H619.625L625.875 558.438L628.375 555.938V553.438L619 550.938L617.75 549.688L617.125 546.562V539.688L618.375 538.438H650.25L650.875 539.062V575.938L649.625 576.562H645.25L641.5 573.438L639.625 570.312L636.5 570.938L633.375 573.438L626.5 575.938L617.125 577.188L605.25 576.562L598.375 574.688L591.5 569.688L587.125 563.438L582.75 554.688L580.25 545.938L579.625 542.188V532.812L581.5 524.062L585.25 514.688L590.25 507.812L595.875 503.438L604.625 499.062L612.75 497.188Z"
        fill="#DA3466"
      />
      <path
        d="M839 498.438L885.25 499.062L897.75 499.688L898.375 500.312L897.75 514.688H862.75V528.438L884.625 529.062V543.438L884 544.062H862.75V558.438L897.75 559.062L899 559.688V575.938H839L838.375 575.312V528.438L839 498.438Z"
        fill="#DA3466"
      />
      <path
        d="M1226.5 497.188H1235.88L1244.62 499.062L1252.12 502.188L1258.38 505.938L1259.62 509.688L1254.62 515.938L1249.62 520.312H1245.88L1239 515.312L1235.88 514.062H1228.38L1224 516.562L1223.38 517.188V520.938L1227.12 523.438L1249.62 529.688L1254.62 532.188L1258.38 535.312L1262.75 541.562L1265.25 549.688L1264.62 556.562L1259.62 566.562L1255.25 571.562L1249.62 574.688L1242.12 576.562L1237.12 577.188H1225.25L1216.5 575.938L1208.38 572.812L1203.38 569.062L1200.25 565.312L1199 562.188L1199.62 559.688L1205.88 555.938L1208.38 553.438L1212.12 554.062L1222.12 559.062L1230.25 560.312L1237.12 559.688L1241.5 557.188V553.438L1239 550.938L1223.38 545.938L1211.5 541.562L1205.25 537.812L1202.12 531.562V516.562L1204.62 510.938L1209 505.938L1214 502.188L1222.12 498.438L1226.5 497.188Z"
        fill="#DA3466"
      />
      <path
        d="M52.125 499.062H64L65.875 500.312V539.062L65.25 551.562L63.375 559.062L59 567.812L54.625 572.812L48.375 575.312L41.5 576.562H23.375L14.625 574.688L8.375 570.938L4 565.312L1.5 557.188L0.875 552.812V499.688H22.125L22.75 500.312V545.312L24 555.938L26.5 558.438L34 559.688L40.875 559.062L44.625 556.562L46.5 551.562L47.125 545.938V499.688L52.125 499.062Z"
        fill="#DA3466"
      />
      <path
        d="M947.125 499.688H969.625L972.125 502.188L977.125 517.812L987.125 548.438L995.25 570.938L996.5 574.062V575.938H974L971.5 573.438L967.75 561.562L967.125 560.938H942.125L940.875 569.062L939.625 574.688L935.875 575.938H923.375L920.25 575.312L920.875 572.188L924.625 562.812L933.375 535.312L942.125 508.438L944 502.188L945.25 500.312L947.125 499.688ZM954.625 522.188L953.375 523.438L949 539.062L947.75 544.688H962.125L962.75 542.812L958.375 525.938L956.5 522.188H954.625Z"
        fill="#DA3466"
      />
      <path
        d="M277.125 499.688H301.5L304 506.562L314.625 537.188L324.625 567.812L327.75 574.062V575.938H304L302.75 574.688L299.625 561.562L299 560.938H275.875L274 561.562L269.625 574.688L268.375 575.938H251.5L252.125 572.188L262.75 541.562L268.375 522.188L274 506.562L275.875 500.938L277.125 499.688ZM285.875 522.812L284 527.812L279.625 542.188L279 544.688H292.75L294.625 544.062L292.75 537.812L288.375 524.688L287.125 522.812H285.875Z"
        fill="#DA3466"
      />
      <path
        d="M179.625 499.062H220.875L238.375 499.688L237.75 512.812L237.125 514.688L221.5 515.312L200.875 514.688V529.688H226.5V542.188L225.25 545.312H200.875L201.5 575.312L200.875 575.938H180.25L179.625 575.312L179 499.688L179.625 499.062Z"
        fill="#DA3466"
      />
      <path
        d="M1120.25 499.062H1174.62L1176.5 499.688L1175.88 512.812L1175.25 513.438L1170.25 514.062H1155.88V575.312L1155.25 575.938H1132.75V514.062H1114.62L1111.5 512.812L1110.88 500.312L1111.5 499.688L1120.25 499.062Z"
        fill="#DA3566"
      />
      <path
        d="M445.25 499.062H465.25L466.5 500.312V542.812L465.875 575.938H444V499.688L445.25 499.062Z"
        fill="#DA3869"
      />
      <path
        d="M741.5 0.3125H757.125L770.25 2.1875L783.375 5.9375L792.75 9.0625L802.75 14.0625L811.5 19.0625L820.25 25.3125L827.125 30.9375L834.625 37.8125L840.25 44.0625L849 57.1875L857.75 74.0625L863.375 88.4375L865.875 97.8125L869 115.938L870.25 127.188V157.188L868.375 175.938L864.625 196.562L860.875 209.688L854 229.062L845.875 248.438L839.625 261.562L834 272.188L830.25 279.688L837.75 267.812L845.875 254.062L855.25 236.562L861.5 223.438L868.375 205.312L875.25 183.438L879 167.188L880.875 155.312L881.5 148.438V116.562L880.25 104.688L876.5 89.0625L875.25 82.8125L877.75 84.0625L881.5 89.6875L887.75 104.062L892.75 117.188L895.875 130.938L898.375 147.188L899 154.688V165.938L897.125 180.312L894 199.062L889.625 214.688L882.125 237.188L875.875 252.188L865.875 272.812L858.375 287.188L841.5 315.312L832.75 329.062L824 342.188L819.625 348.438L814 357.188L804 370.312L799 377.188L794 383.438L787.125 392.188L779 402.812L773.375 409.062L766.5 417.812L759 425.938L753.375 432.812L744.625 441.562L740.25 446.562L725.875 460.938L722.75 463.438L713.375 472.812L704.625 479.688L698.375 484.688L695.875 485.938H690.875L681.5 483.438L677.75 481.562L678.375 479.062L681.5 476.562L686.5 472.812L694 465.938L705.875 454.062L710.25 449.062L718.375 439.688L724.625 431.562L733.375 419.688L749.625 397.188L759 383.438L764 376.562L769.625 367.812L775.875 357.188V356.562L764.625 370.312L757.125 378.438L749.625 387.188L745.25 392.188L737.75 400.938L730.875 408.438L723.375 416.562L716.5 424.062L685.25 455.312L680.25 459.688L677.75 460.938L676.5 463.438H675.25V464.688L672.125 467.188L667.75 472.188L665.25 473.438L647.125 465.938L624.625 455.938L606.5 447.188L594.625 440.938L583.375 434.688L576.5 430.312L573.375 430.938L565.25 437.188L556.5 444.062L547.125 451.562L537.125 458.438L518.375 470.938L510.25 475.312L504.625 473.438L497.125 469.062L495.875 466.562L499 463.438L509 457.188L517.75 450.938L527.75 443.438L536.5 436.562L544.625 430.312L542.125 430.938L534.625 435.938L524 442.812L510.875 450.938L499 457.812L490.25 462.812H486.5L470.875 454.062L464.625 449.688L454.625 442.812L444.625 435.312L437.75 429.688L429.625 422.812L420.25 414.062L412.125 405.938L407.75 400.938L400.875 392.812L392.75 381.562L385.25 369.688L379 357.812L371.5 338.438L368.375 327.188L367.125 319.688L366.5 312.812V291.562L368.375 276.562L371.5 267.188L377.125 254.688L382.75 244.688L389.625 235.938L387.75 230.312L382.125 212.812L379.625 199.062L378.375 189.062V164.688L380.875 149.062L386.5 132.188L391.5 122.188L397.125 111.562L402.125 104.062L407.75 96.5625L416.5 85.9375L426.5 75.9375L433.375 70.3125L441.5 64.6875L451.5 59.0625L462.75 54.6875L475.875 51.5625L484 50.3125H499.625L516.5 52.8125L528.375 55.9375L540.875 60.9375L554 67.8125L563.375 74.0625L573.375 81.5625L584 91.5625L592.125 99.6875L597.75 107.188L602.125 113.438L605.25 117.812L606.5 118.438L607.125 115.312L614.625 97.8125L620.875 85.9375L625.875 76.5625L632.75 66.5625L639 58.4375L644 52.1875L651.5 44.0625L661.5 34.6875L669.625 28.4375L683.375 19.6875L694.625 13.4375L706.5 8.4375L720.875 4.0625L735.875 0.9375L741.5 0.3125ZM741.5 20.9375L727.125 23.4375L713.375 27.1875L702.125 32.1875L690.875 38.4375L680.875 45.3125L672.125 52.1875L657.125 67.1875L652.75 72.8125L645.875 80.9375L637.75 94.0625L629 110.938L624.625 122.812L621.5 135.938L620.25 144.062L619.625 155.312L620.875 173.438L623.375 192.188L630.25 227.188L624.625 225.312L617.75 220.938L612.75 215.938L607.75 207.188L604.625 199.062L602.125 187.188L597.75 161.562L594 144.062L589 131.562L582.75 120.938L574.625 110.938L566.5 102.188L559.625 96.5625L552.125 90.9375L542.125 84.6875L531.5 79.0625L521.5 75.3125L510.25 72.8125L500.25 71.5625H484L472.125 73.4375L462.125 76.5625L451.5 82.1875L443.375 88.4375L437.125 94.0625L433.375 97.1875L429 102.188L420.25 112.812L414.625 121.562L407.75 134.688L402.125 149.062L399 160.312L397.75 168.438V185.312L400.25 200.938L405.25 220.312L409 219.062L419 214.062L430.25 210.312L440.25 208.438H452.75L462.75 210.312L470.875 213.438L478.375 217.812L486.5 225.312L492.125 232.188L498.375 242.812L502.75 250.938L507.125 247.188L511.5 242.812L522.125 235.312L533.375 228.438L541.5 224.688L549.625 222.188L559 220.312L565.25 219.688H577.125L588.375 220.938L600.25 223.438L612.125 228.438L619 233.438L627.75 240.938L632.75 247.188L637.75 255.938L641.5 265.938L644.625 278.438L645.875 287.188V304.062L642.125 319.688L638.375 330.312L633.375 340.938L625.25 352.812L625.875 354.062L630.25 349.688L636.5 341.562L642.75 330.312L647.125 320.938L649.625 313.438H650.25L650.875 317.188V331.562L649.625 339.688L645.875 350.312L639.625 363.438L633.375 372.812L623.375 385.938L617.75 392.188L606.5 403.438L601.5 407.812L591.5 414.688L590.875 415.938L634.625 437.812L647.125 443.438L660.25 449.062L662.75 447.812L670.875 440.312L691.5 419.688L695.25 416.562L699.625 411.562L711.5 399.688L715.875 394.688L720.25 390.312L724.625 385.312L731.5 377.812L737.125 370.938L742.125 365.312L747.75 358.438L752.75 352.812L759.625 344.062L767.75 334.062L775.25 324.062L783.375 313.438L794 297.812L799 290.938L807.125 277.812L813.375 267.812L820.875 253.438L827.125 241.562L834 225.938L843.375 197.188L846.5 184.062L849 167.812L850.25 154.688V130.312L847.75 110.938L844.625 97.8125L840.875 86.5625L834.625 72.1875L828.375 61.5625L821.5 52.8125L813.375 44.6875L804 37.8125L794.625 32.1875L784 27.1875L771.5 23.4375L761.5 21.5625L755.875 20.9375H741.5ZM442.125 227.812L433.375 229.688L423.375 234.062L415.875 239.062L407.125 246.562L402.75 251.562L398.375 257.812L393.375 267.812L390.25 275.312L387.125 285.938L385.875 294.688V309.688L387.75 322.188L391.5 334.688L397.125 349.688L402.125 359.062L410.875 372.188L418.375 382.188L424 388.438L428.375 393.438L440.875 405.938L447.75 411.562L454 417.188L465.875 425.938L474.625 432.188L483.375 437.812L487.125 439.688H490.875L518.375 422.188L525.875 417.188L537.75 409.062L548.375 401.562L554.625 396.562L564.625 388.438L571.5 382.812L579.625 375.312L586.5 369.062L590.875 364.062L597.75 356.562L603.375 350.312L610.25 340.938L617.125 330.312L621.5 320.938L625.25 306.562L625.875 302.812V287.188L624 274.688L620.25 264.688L616.5 258.438L609.625 250.938L602.75 245.938L597.125 242.812L587.75 240.312L576.5 239.062H567.75L554.625 240.938L545.25 244.062L537.75 248.438L527.125 255.938L519 262.812L512.75 268.438L507.125 274.688L501.5 281.562L494 292.812L485.25 309.062L480.25 320.938L472.75 342.188V343.438H471.5L470.875 332.812V315.938L471.5 306.562L474 296.562L479 285.938L485.875 274.688L488.375 269.688L482.125 254.062L476.5 244.062L469.625 236.562L464 232.188L457.125 229.062L450.875 227.812H442.125Z"
        fill="#DA3466"
      />
      <path
        d="M590.875 417.188H594.625L634.625 437.188L647.125 442.812L659 447.812L659.625 450.312L658.375 452.188H657.125L656.5 455.312H655.25V456.562H653.375V457.812L648.375 460.312H644.625L641.5 461.562L631.5 459.062L614 450.938L593.375 440.312L580.25 432.812L577.125 430.312L578.375 427.188L584 422.188H585.25V420.938L590.875 417.188Z"
        fill="#962756"
      />
      <path
        d="M580.25 99.6875L587.75 100.312L592.125 102.188V103.438L595.875 104.688L605.25 117.812L604.625 127.188L604 129.688H602.75L602.125 135.938L600.25 136.562V138.438L597.75 139.062V140.312H596.5V141.562L594 142.188L591.5 139.062L587.75 130.312L581.5 120.312L576.5 114.062L575.25 110.938L571.5 107.188V105.938L573.375 104.688L574 101.562L579 100.312L580.25 99.6875Z"
        fill="#952756"
      />
      <path
        d="M477.125 230.938L480.25 231.562L484.625 232.188L487.75 231.562L489.625 233.438L492.125 234.688V235.938H493.375L495.875 239.062L498.375 241.562L502.125 248.438L500.875 254.062L497.75 257.188L495.25 258.438L494.625 260.312H493.375V261.562L488.375 262.188L487.125 261.562V260.312L484 259.688L479 249.062L473.375 240.938L470.25 237.812L469.625 234.062L476.5 231.562L477.125 230.938Z"
        fill="#952756"
      />
    </svg>